<?xml version="1.0" standalone="no"?>
<!DOCTYPE svg PUBLIC "-//W3C//DTD SVG 20010904//EN"
 "http://www.w3.org/TR/2001/REC-SVG-20010904/DTD/svg10.dtd">
<svg version="1.0" xmlns="http://www.w3.org/2000/svg"
 width="1032.000000pt" height="1032.000000pt" viewBox="0 0 1032.000000 1032.000000"
 preserveAspectRatio="xMidYMid meet">
<metadata>
Created by potrace 1.11, written by Peter Selinger 2001-2013
</metadata>
<g transform="translate(0.000000,1032.000000) scale(0.100000,-0.100000)"
fill="#000000" stroke="none">
<path d="M5055 9751 c-23 -12 -48 -34 -58 -50 -21 -37 -22 -103 -1 -143 15
-30 15 -32 -2 -45 -10 -7 -21 -13 -25 -13 -3 0 -19 -18 -33 -39 -63 -90 -20
-200 89 -231 55 -15 103 -8 169 24 l51 25 25 -24 c21 -20 36 -25 80 -25 l54 0
-53 54 -54 54 22 44 c11 24 24 65 27 91 l7 47 -36 0 c-35 0 -36 -1 -42 -45 -4
-24 -13 -52 -20 -62 -12 -17 -16 -15 -52 23 -149 159 -143 151 -143 192 0 74
78 101 122 42 19 -26 27 -30 53 -24 39 8 39 8 22 41 -40 76 -125 103 -202 64z
m70 -351 c37 -39 66 -72 64 -73 -2 -1 -12 -9 -22 -16 -27 -21 -91 -25 -126 -7
-17 9 -31 21 -31 26 0 6 -7 10 -15 10 -8 0 -15 7 -15 15 0 8 5 15 10 15 6 0
10 11 10 24 0 23 34 76 49 76 4 0 38 -32 76 -70z"/>
<path d="M6093 9324 c-68 -35 -95 -133 -52 -188 11 -15 47 -45 80 -67 52 -35
59 -44 59 -73 0 -41 -26 -66 -70 -66 -33 0 -100 34 -100 50 0 5 -8 14 -19 19
-14 8 -23 5 -40 -13 l-21 -23 21 -28 c29 -36 113 -75 162 -75 77 0 136 48 153
123 10 45 -20 98 -76 136 -70 48 -90 69 -90 95 0 60 79 72 145 21 40 -30 47
-31 69 -6 22 24 17 32 -40 72 -56 38 -133 48 -181 23z"/>
<path d="M3775 9300 l-120 -27 2 -39 c2 -22 14 -91 28 -154 14 -63 33 -150 42
-192 11 -50 22 -78 30 -78 17 0 265 50 273 55 9 6 0 65 -10 65 -4 0 -52 -9
-105 -20 -54 -11 -99 -19 -100 -18 -4 5 -25 108 -25 121 0 8 33 20 81 31 79
18 80 19 74 45 -4 14 -8 28 -11 30 -3 3 -93 -12 -140 -25 -20 -5 -23 0 -33 46
-19 87 -21 84 78 104 108 22 114 26 105 59 -8 33 -14 33 -169 -3z"/>
<path d="M6426 9252 c-65 -229 -117 -435 -110 -442 10 -10 274 -83 279 -78 2
2 5 16 7 32 3 29 2 30 -90 57 -51 15 -96 29 -99 32 -6 7 14 96 27 116 7 12 20
12 85 -6 l77 -20 9 24 c5 13 9 28 9 32 0 4 -34 15 -76 26 -41 10 -77 22 -79
25 -2 4 4 33 14 66 20 67 11 65 139 32 45 -12 84 -19 86 -17 2 2 6 16 9 30 7
26 5 27 -101 57 -183 53 -181 52 -186 34z"/>
<path d="M3534 9250 c-12 -5 -25 -14 -29 -20 -8 -13 -54 -294 -55 -332 0 -15
-4 -29 -9 -32 -5 -3 -51 60 -102 140 -52 80 -100 153 -108 161 -10 10 -24 13
-50 8 -20 -4 -38 -8 -39 -10 -4 -3 83 -135 218 -333 l64 -93 35 6 c38 7 51 19
51 46 0 15 62 377 76 442 6 29 -9 35 -52 17z"/>
<path d="M6789 9118 c-6 -23 -22 -79 -34 -123 -32 -109 -75 -275 -75 -285 0
-8 71 -33 76 -27 1 1 12 38 24 82 12 44 25 84 29 88 4 4 19 3 34 -2 21 -8 31
-26 59 -112 30 -93 36 -103 65 -116 64 -26 65 -22 23 99 -39 115 -39 127 2
128 30 0 85 65 93 109 13 77 -43 135 -164 170 -127 38 -118 38 -132 -11z m151
-64 c65 -26 81 -84 34 -131 -23 -23 -31 -25 -77 -20 -28 4 -55 11 -60 16 -6 6
-3 35 9 80 20 79 25 82 94 55z"/>
<path d="M2841 9104 c-83 -31 -151 -129 -151 -219 0 -134 112 -255 236 -255
51 0 127 28 167 61 118 97 109 293 -19 388 -40 30 -53 34 -117 37 -49 3 -86
-2 -116 -12z m163 -76 c21 -11 41 -28 43 -39 3 -10 8 -19 12 -19 14 0 33 -100
26 -139 -5 -33 -55 -120 -55 -97 0 4 -10 0 -22 -8 -30 -21 -112 -21 -148 1
-64 37 -99 165 -65 236 36 76 130 105 209 65z"/>
<path d="M7150 9047 c0 -12 11 -112 25 -222 14 -110 25 -214 25 -232 0 -36 3
-39 50 -48 35 -6 35 -6 120 106 47 62 116 153 153 202 37 49 66 91 63 94 -2 3
-22 7 -44 10 -33 4 -42 2 -56 -18 -80 -112 -200 -269 -206 -269 -8 0 -13 34
-31 223 -7 70 -17 135 -23 143 -6 8 -26 18 -43 23 -30 9 -33 8 -33 -12z"/>
<path d="M5125 9029 c-16 -11 -64 -36 -105 -55 -41 -19 -82 -39 -91 -44 -65
-35 -294 -121 -514 -194 -148 -49 -189 -61 -285 -89 -19 -5 -53 -15 -75 -22
-22 -7 -60 -18 -85 -24 -25 -5 -103 -24 -175 -42 -127 -31 -150 -36 -265 -57
-30 -6 -116 -23 -190 -37 -129 -25 -191 -35 -345 -55 -38 -5 -119 -17 -180
-25 -265 -38 -814 -74 -1156 -74 -186 -1 -218 -3 -230 -17 -17 -21 -18 -1315
-1 -1599 29 -467 49 -734 64 -865 5 -47 13 -125 18 -175 15 -157 31 -283 70
-545 9 -64 73 -421 90 -510 31 -158 70 -320 116 -485 19 -71 39 -146 44 -165
17 -76 155 -465 200 -565 99 -222 252 -527 359 -719 34 -60 61 -117 60 -125 0
-9 -19 -29 -41 -46 -72 -52 -96 -105 -133 -293 -18 -92 -37 -193 -40 -224 -6
-50 -10 -58 -29 -58 -11 0 -83 21 -158 46 -122 40 -138 48 -138 68 0 12 20 98
45 191 28 105 43 180 40 195 -11 41 -72 135 -114 172 -53 49 -117 72 -185 66
-42 -4 -88 -21 -201 -77 -227 -112 -305 -147 -433 -190 -152 -51 -229 -64
-356 -59 -99 3 -106 5 -153 37 -95 65 -157 177 -203 366 l-26 110 -19 -35
c-30 -58 -65 -200 -72 -291 -10 -149 28 -283 107 -372 16 -19 30 -42 30 -51 0
-9 -22 -27 -52 -43 -65 -33 -173 -38 -224 -11 -17 10 -34 14 -38 11 -11 -12
-6 -114 10 -186 38 -171 149 -307 320 -394 123 -63 184 -78 282 -69 112 9 308
61 482 126 85 33 182 66 215 74 71 18 165 31 165 23 0 -3 -19 -75 -41 -159
-74 -274 -74 -272 -1 -340 193 -181 556 -288 1076 -317 211 -12 264 -5 312 43
17 17 39 54 48 81 10 28 22 59 27 70 5 11 20 69 33 128 14 60 27 111 30 115 4
3 36 -7 74 -23 408 -171 602 -234 907 -290 151 -28 425 -71 545 -86 87 -11
487 -57 573 -66 32 -3 97 -1 145 6 48 6 186 23 307 37 347 39 693 94 916 144
165 37 436 128 629 210 80 34 154 64 166 67 19 4 23 -4 44 -99 28 -124 62
-228 89 -272 41 -65 107 -78 332 -66 478 27 816 118 1025 275 124 93 127 105
63 337 -23 84 -44 166 -47 182 l-5 29 51 -7 c85 -11 191 -42 317 -91 152 -60
344 -112 463 -127 117 -15 172 -5 300 58 78 38 109 60 176 127 110 111 155
208 172 373 10 92 7 95 -63 72 -72 -25 -135 -19 -210 17 -55 27 -64 43 -37 66
25 20 68 89 92 146 54 127 51 284 -9 469 -31 99 -45 119 -54 82 -2 -13 -12
-54 -20 -93 -44 -197 -141 -345 -254 -383 -19 -7 -80 -12 -136 -12 -179 0
-359 58 -695 223 -176 86 -214 101 -265 105 -75 5 -133 -19 -196 -83 -49 -50
-99 -138 -99 -176 0 -14 6 -48 14 -75 30 -100 76 -283 76 -298 0 -10 -41 -28
-142 -60 -77 -26 -149 -46 -158 -46 -14 0 -22 32 -49 188 -18 103 -40 208 -48
233 -18 61 -67 135 -104 156 -33 20 -37 47 -12 83 10 14 30 49 45 78 15 29 40
74 55 100 48 84 163 317 163 330 0 6 4 12 9 12 5 0 13 9 16 21 4 11 29 68 56
126 28 58 58 126 69 152 10 25 34 86 54 135 20 49 36 97 36 106 0 9 4 20 9 26
5 5 20 45 34 89 36 113 96 313 107 358 6 20 15 56 21 80 6 23 15 58 20 77 5
19 16 67 24 105 9 39 20 88 25 110 5 22 13 63 19 90 5 28 16 84 24 125 20 95
34 181 71 410 23 143 34 227 56 425 11 99 25 214 30 255 17 126 44 503 62 855
14 274 18 1591 5 1638 l-7 27 -213 0 c-226 1 -500 12 -712 30 -335 28 -336 28
-635 69 -131 19 -417 67 -540 93 -25 5 -65 13 -90 17 -25 5 -61 13 -80 19 -19
5 -78 20 -130 32 -52 12 -115 27 -140 34 -54 16 -123 36 -165 47 -86 22 -134
37 -285 87 -91 29 -178 60 -195 67 -16 7 -46 18 -65 25 -19 7 -59 23 -88 36
-29 13 -58 24 -65 24 -7 0 -17 4 -22 8 -6 5 -35 19 -65 32 -99 41 -165 74
-196 97 -38 28 -41 28 -79 2z"/>
<path d="M2378 9003 c-23 -6 -23 -11 11 -171 16 -75 37 -175 47 -220 16 -76
19 -83 38 -79 12 2 72 15 134 27 l112 24 0 33 c0 38 3 38 -108 17 -46 -8 -85
-14 -87 -12 -2 2 -15 57 -29 123 -53 256 -56 265 -80 264 -11 -1 -29 -3 -38
-6z"/>
<path d="M7633 8888 c-9 -36 -94 -344 -110 -399 -4 -13 21 -23 127 -52 72 -21
137 -37 145 -37 14 0 33 46 23 56 -3 2 -45 16 -94 30 -49 14 -92 28 -96 30 -7
4 19 115 30 126 4 4 40 -2 80 -14 75 -22 85 -20 96 18 6 20 0 23 -70 42 -42
12 -79 23 -81 26 -6 6 15 96 27 115 7 12 24 10 106 -12 103 -28 114 -26 114
18 0 17 -19 25 -137 58 -76 20 -141 37 -144 37 -3 0 -10 -19 -16 -42z"/>
<path d="M5536 628 c-61 -151 -75 -189 -63 -185 15 5 32 39 74 151 37 100 36
96 24 96 -5 0 -20 -28 -35 -62z"/>
<path d="M3850 570 c0 -103 1 -110 20 -110 17 0 20 7 20 45 0 33 4 45 15 45 8
0 28 -20 45 -45 19 -28 39 -45 51 -45 18 0 17 4 -12 46 l-32 47 21 16 c20 15
27 36 24 72 -3 23 -45 39 -102 39 l-50 0 0 -110z m108 66 c11 -11 11 -18 3
-35 -7 -11 -17 -21 -24 -22 -7 0 -20 -2 -29 -4 -15 -3 -18 4 -18 34 0 21 3 40
6 44 9 9 46 -1 62 -17z"/>
<path d="M4460 569 c0 -100 2 -110 17 -107 15 3 18 14 18 68 0 36 3 67 7 70 4
3 32 -28 63 -67 31 -40 63 -73 71 -73 11 0 14 21 14 110 0 91 -3 110 -15 110
-12 0 -15 -14 -15 -70 0 -38 -4 -70 -9 -70 -5 0 -34 32 -65 70 -80 98 -86 95
-86 -41z"/>
<path d="M5130 660 c-11 -11 -20 -24 -20 -30 0 -17 25 -11 43 10 20 23 40 26
56 6 19 -23 3 -60 -50 -112 -67 -68 -65 -76 24 -72 77 3 96 21 27 26 -22 2
-40 6 -40 9 0 3 18 25 40 49 28 30 40 53 40 73 0 55 -79 82 -120 41z"/>
<path d="M5310 660 c-24 -24 -25 -39 -6 -66 12 -15 12 -22 2 -34 -26 -30 -26
-51 -1 -76 30 -30 73 -31 109 -3 31 25 33 51 6 77 -18 17 -19 20 -5 32 22 18
18 56 -7 74 -31 22 -74 20 -98 -4z m77 -13 c26 -16 -6 -68 -37 -60 -14 4 -20
14 -20 33 0 35 25 47 57 27z m11 -115 c5 -30 -14 -52 -40 -47 -27 6 -31 10
-33 38 -2 27 12 38 45 35 18 -2 26 -10 28 -26z"/>
<path d="M5637 662 c-17 -19 -23 -42 -10 -42 4 0 17 9 29 21 31 29 64 18 64
-22 0 -23 -13 -44 -55 -88 -30 -32 -55 -61 -55 -64 0 -4 34 -7 75 -7 62 0 75
3 75 16 0 13 -9 15 -45 12 -25 -2 -45 0 -45 5 0 4 12 20 28 35 65 63 75 95 42
130 -26 28 -80 29 -103 4z"/>
<path d="M5815 656 c-21 -21 -25 -34 -25 -86 0 -52 4 -65 25 -86 36 -36 82
-30 112 15 66 98 -32 236 -112 157z m93 -95 c-5 -56 -26 -85 -54 -74 -41 15
-38 156 4 166 9 2 25 -5 36 -17 14 -16 17 -32 14 -75z"/>
<path d="M6015 650 c-30 -32 -27 -52 5 -32 11 7 21 12 23 12 2 0 3 -33 3 -72
-1 -68 -3 -73 -23 -76 -47 -7 -21 -22 37 -22 33 0 60 4 60 10 0 6 -9 10 -20
10 -19 0 -20 7 -20 100 0 90 -2 100 -18 100 -10 0 -31 -13 -47 -30z"/>
<path d="M6180 658 c-11 -12 -20 -25 -20 -30 0 -16 25 -8 38 12 14 24 45 26
62 5 16 -19 6 -45 -20 -52 -27 -7 -25 -31 3 -35 42 -6 30 -78 -13 -78 -9 0
-25 9 -35 20 -21 23 -35 26 -35 7 0 -43 80 -62 120 -29 25 20 31 69 10 82 -10
6 -9 15 1 43 11 32 11 39 -6 57 -25 27 -78 27 -105 -2z"/>
<path d="M4060 583 c-24 -31 -22 -74 7 -105 21 -23 85 -24 104 -1 13 15 11 16
-19 10 -41 -8 -72 7 -72 33 0 17 7 20 50 20 53 0 61 10 40 51 -17 31 -83 26
-110 -8z"/>
<path d="M4226 591 c-16 -17 -17 -26 -8 -45 7 -16 7 -38 0 -71 -9 -43 -8 -50
8 -62 43 -32 124 -6 124 41 0 18 -37 36 -76 36 -13 0 -24 5 -24 10 0 6 9 10
21 10 34 0 59 19 59 45 0 13 6 25 13 28 21 8 1 17 -49 23 -42 5 -52 3 -68 -15z
m72 -28 c3 -22 -22 -38 -41 -26 -17 11 -15 37 3 45 22 10 35 4 38 -19z m-28
-128 c0 -9 -6 -12 -15 -9 -8 4 -15 10 -15 15 0 5 7 9 15 9 8 0 15 -7 15 -15z"/>
<path d="M4712 587 c-46 -49 -14 -127 53 -127 44 0 75 32 75 76 0 67 -83 99
-128 51z m91 -27 c8 -30 -4 -70 -22 -71 -45 -3 -59 8 -55 44 1 12 3 27 3 34 1
12 37 22 58 15 6 -2 13 -12 16 -22z"/>
<path d="M4955 600 c-8 -14 3 -30 21 -30 8 0 14 9 14 20 0 21 -24 28 -35 10z"/>
<path d="M4955 490 c-8 -14 3 -30 21 -30 8 0 14 9 14 20 0 21 -24 28 -35 10z"/>
</g>
</svg>
