<svg version="1" xmlns="http://www.w3.org/2000/svg" width="252" height="252" viewBox="0 0 189.000000 189.000000"><path d="M90.1 16.8c-1.3 2.5.9 5.8 3.3 4.9 2.1-.8 2-2.1-.1-4.2-1.6-1.6-1.5-1.7.3-1.3 1.2.2 2 1.3 2.2 3.1.3 2.1.9 2.7 2.7 2.7 1.3 0 2.5.6 2.8 1.2.7 2.1 1.5.6 1.9-3.6.2-2.5-.2-4.1-.9-4.3-.9-.3-1.3.6-1.3 2.6 0 3.8-1.8 4.1-2.2.3-.3-2.3-.8-2.7-4-3-2.8-.2-3.9.1-4.7 1.6zM107.9 18.3c-2.1 2.9-1.4 4.7 1.7 4.7 1.4 0 3.5.5 4.6 1.1 2.4 1.3 4.1 0 2.7-2.1-.8-1.1-1.2-1.2-1.6-.3-.2.7-1 1.3-1.6 1.3-.8 0-.8-.3 0-1.1.6-.6.9-1.8.6-2.5-.4-1 0-1.2 1.3-.8 1.3.5 1.6.4.9-.3-.5-.6-2.3-1.4-4-1.7-2.4-.4-3.3-.1-4.6 1.7zm3.6-.3c-.3.5-1.1 1-1.6 1-.6 0-.7-.5-.4-1 .3-.6 1.1-1 1.6-1 .6 0 .7.4.4 1zm-1 3c-.3.5-1 1-1.6 1-.5 0-.9-.5-.9-1 0-.6.7-1 1.6-1 .8 0 1.2.4.9 1zM77.8 17.7c-1.5.2-3 1.2-3.3 2.2-.6 2.1.3 5.1 1.6 5.1.6 0 .5-.9-.2-2.1-.8-1.5-.8-2.4 0-3.2.8-.8 1.4-.2 2.2 2.1 1.2 3.6 3.3 3.3 2.6-.4-.2-1.4 0-2.7.5-3 1.2-.8 1.5-.4 2.3 2.8.6 2.4.3 2.9-2.9 4.5-3.7 1.7-4.4 2.7-2.6 3.8.6.3 1.3 0 1.6-.8.3-.9 1.8-2 3.4-2.7 2.9-1.2 4.5-4.6 3.4-7.4-.6-1.6-2.7-1.8-8.6-.9zM131.4 21.1c-.3.6-.1 1.6.5 2.2.8.8 1.1.5 1.1-1.1 0-2.4-.5-2.8-1.6-1.1zM121 23.1c-1.3 2.3.2 4.9 2.7 4.9 2.3 0 2.8-3.1.8-4.6-1.5-1.2-1.6-1.4-.3-1.4 2.7 0 4.4 2.9 3 5.1-1.5 2.4-1.5 2.9.2 2.9.7 0 2-1 2.8-2.2.9-1.3 1.9-1.8 2.7-1.4.9.6.8 1.4-.4 3.3-2.4 3.6-.3 5.5 2.3 2.2 1.7-2 2.2-2.1 3.6-1 .9.7 1.6 1 1.6.5 0-.9-7.3-6.4-8.5-6.4-.4 0-1.8-.9-3.2-2-3.3-2.6-5.9-2.5-7.3.1zm2 1.9c0 .5-.5 1-1.1 1-.5 0-.7-.5-.4-1 .3-.6.8-1 1.1-1 .2 0 .4.4.4 1zM66.4 29.1c-2.7 1.7-5.9 4-7.1 5.2C58 35.4 57 36 57 35.6c0-.5-.7-.3-1.5.4s-1.2 1.6-.9 2.1c.3.5 3.5-1.4 7.1-4.2 3.7-2.8 7.7-5.5 9-6 1.3-.5 2.3-1.1 2.3-1.4 0-1.1-1.8-.4-6.6 2.6z"/><path d="M55.2 29.8c-.7.5-1.1 1.5-.9 2.3.2.8.2 1.1 0 .6-.3-.4-.9-.7-1.4-.7-1.3 0-1.1 2.7.3 3.6 1.3.8 4-2.5 3.1-3.9-.3-.6-.1-.7.5-.3.6.4.9 1.4.6 2.4-.5 1.4-.3 1.4 1-.2.9-1.1 1.6-2.6 1.6-3.3 0-1.4-2.8-1.7-4.8-.5zM23.2 44c-3 1.3-4.5 5.3-3 8.5 2.7 5.9 11.8 4.1 11.8-2.4 0-3.2-.8-4.4-3.7-6-2.5-1.3-2.1-1.3-5.1-.1zM72.8 46.5C71.2 50.2 74 56 77.4 56c3.8 0 4.9-5.6 2-9.8-2-3-5.2-2.8-6.6.3zM112.5 47.6c-1.3 2.9-1.5 4.2-.6 6 1.3 2.8 4.2 3.1 6.4.6 1.9-2.2 2.3-4 1.4-7.5-1.1-4.2-5-3.7-7.2.9z"/><path d="M40.8 47.6c-3.9 5.1-9.9 10.2-12.4 10.7-1.7.3-4.3-.1-6.2-1-3.3-1.6-4.1-2.6-4.6-5.7-.3-2.3-1.1-2.7-5.1-3.3l-3.6-.5 1.9 3.2c1.1 1.7 1.7 4 1.5 5.1-.4 1.3.9 3.3 4.5 6.6 4.1 3.9 5.3 5.9 6.7 10.8 2.2 8.2 3.6 11.5 4.7 11.5 1.8 0 5.1-9.5 5.2-15.1.1-3.9.6-6.1 1.9-7.3 2.9-3 7.6-10.2 8.2-12.8.8-3.1-.9-4.5-2.7-2.2zM160.6 48.2c-2.1 2.9-2 5.1.2 7.8 2.3 2.9 6.1 3.2 9 .6 4.3-3.8 1.6-10.6-4.3-10.6-2.4 0-3.9.7-4.9 2.2z"/><path d="M148.2 49.2c-1.5 1.5.7 6.6 5.7 12.9 3.5 4.4 4 5.6 3.9 10.2-.1 5.1 2.7 13.7 5 15.1.9.5 3.2-3.9 3.6-6.9 1-7.2 4.3-13.1 9.3-16.5 2.6-1.7 3.3-3 3.3-5.4 0-1.7.7-4.2 1.6-5.4 2-2.9 1.7-3.2-2.6-2.3-2.5.5-3.6 1.3-4 3.1-.8 3.6-6.8 7.3-10.4 6.6-3.9-.8-8.9-4.7-11.6-9.1-2.5-4-2.2-3.9-3.8-2.3zM65.7 49.7c-1.3 1.2-.7 6.2.9 7.7 3.3 3.3 6.6 1.1 4-2.6-.9-1.2-1.6-3-1.6-4 0-1.8-2-2.4-3.3-1.1zM122.6 53.3c-2 5.4-2 5.7.4 5.7 2.7 0 5.4-4.3 4.6-7.5-1-3.8-3.1-3-5 1.8zM59.1 55.4c-1.7 2.1-.3 6.2 2.5 7.5 2 .9 2.6.8 3.1-.4.3-.9-.2-2.4-1.1-3.4-.9-1-1.6-2.3-1.6-2.9 0-1.8-1.7-2.3-2.9-.8zM130.3 56.7c-.3 1-1.3 2.6-2.1 3.5-1.3 1.6-1.3 1.8.2 2.4.9.3 2.3.4 3.1 0 1.8-.6 3.5-4.5 2.8-6.4-.7-1.8-3.3-1.5-4 .5zM80.6 59.1c-1.5 2.3-1.5 2.5.1 3.7 1 .7 2.6 1.9 3.6 2.7 1.6 1.4 1.7 1.2 1.7-1.4 0-1.6-.8-3.9-1.8-5.1l-1.9-2.3-1.7 2.4zM107.5 60.5c-1.3 3-1.5 6-.9 16.3l.6 12.7-3.6 9.4c-4.4 11.5-4.5 13.6-.6 15.6 7.1 3.7 10.2 1.5 19.5-13.5 7.5-12.2 12.7-23.2 11.4-24.4-.5-.6-.9-1.7-.9-2.6 0-.8-.9-2.1-2-2.8-1.1-.7-2-1.8-2-2.5 0-1.3-6.3-6.7-7.8-6.7-.5 0-1.5-.6-2.1-1.4-.7-.8-2.5-1.4-4.1-1.4-1.6.1-3.6-.5-4.5-1.2-1.3-1.1-1.7-.7-3 2.5zM73.5 60.6c-.6.8-1.7 1.6-2.6 1.7-1.4.2-4.4 3-8.9 8.4-.8.9-2.1 3-2.8 4.7-1.1 2.7-.9 3.6 3 11.5l4.3 8.6.3-12.6.3-12.7 3.4-3.3c1.9-1.9 4.1-4 5-4.7.8-.7 1.3-1.7 1-2.3-.9-1.3-1.9-1.1-3 .7zM134.1 64.4c-2.6 2.8-2.1 5.2.8 3.6 2.2-1.1 3.2-3.3 2.2-4.9-.5-.8-1.4-.4-3 1.3zM37.1 64.4c-.7.8-1 3.2-.8 5.5.4 4.4-2.7 13.7-5.6 16.6-1.2 1.1-1.4 2.4-.9 4.8.4 1.8.7 5.3.6 7.9 0 2.7.3 4.8.8 4.8s2.7-.9 4.9-2.1c3.7-1.9 4.4-1.9 8.2-.6 5.6 1.8 12.2 1.7 12.2-.3 0-.8-.4-1.5-1-1.5-4.4-.2-8.6-2-11.3-4.8-4.4-4.6-5.6-8.1-3.7-11.7.8-1.6 1.9-3.1 2.4-3.5.6-.3.9-1.1.7-1.8-.2-.7-1.2-4.2-2.1-8-1.8-6.9-2.4-7.7-4.4-5.3zM55 64.3c0 .8.8 2.1 1.9 3.1 1.5 1.4 2 1.4 3 .3.9-1.2.6-1.8-1.3-3.1-3.1-1.9-3.6-2-3.6-.3z"/><path d="M72.9 68.6c-2.3 2.5-2.4 3.1-2.4 17.6-.1 9.3.3 15.2 1 15.6.5.3 4 .7 7.6.7l6.7.1V87c0-15.4 0-15.5-2.6-18.3-3.3-3.5-7.1-3.5-10.3-.1zM76.8 86c.1 8-.1 9-1.7 9-1.6 0-1.8-1-1.9-9-.1-8.1 0-9 1.7-9s1.9.9 1.9 9zm6.2 1.5c0 3.6-.3 4.5-1.8 4.5-1.4 0-1.7-.9-1.8-4.5-.1-3.8.2-4.5 1.7-4.5 1.6 0 1.9.8 1.9 4.5zM151.1 69.2c-3.2 10.3-3.3 11.7-1.1 14.5 2.7 3.4 2.5 7.2-.5 11.3-3 4.1-5.6 5.6-10.7 6.5-2.3.4-3.8 1.2-3.8 2.1 0 2.1 6.8 2.1 13.1 0 3.3-1.2 4-1.1 7.5 1.1 2.2 1.2 4.2 2.3 4.7 2.3.4 0 .7-2.4.8-5.3.1-2.8.4-6.3.8-7.7.5-1.7.2-3.3-1.1-5-2.7-3.8-5.5-12.3-5.2-15.6.9-7-2.6-10.2-4.5-4.2zM52.3 70.5c-.7 2.1 1.1 3.9 3.1 3.2 2.2-.8 2-2-.4-3.5-1.7-1-2.1-1-2.7.3zM137.6 70.5c-1.2.9-1.6 2-1.2 3.1.6 1.6.9 1.6 2.9-.4 2.6-2.6 1.2-4.8-1.7-2.7zM43.7 81.8c-4.1 4.5-.2 12 5.5 10.8 5.4-1.1 7.3-6 4.2-10.4-1.9-2.8-7.4-3-9.7-.4z"/><path d="M139.8 83.6c-5.6 3-2.4 12.5 3.9 11.8 6-.6 8.3-7.7 3.7-11.3-3.1-2.5-4-2.5-7.6-.5zM89 103.1c0 2.6-.1 2.6-7.7 2.8-4.2.1-7.9.3-8.1.5-.2.2 1.7 2.5 4.2 5.1 4.2 4.4 4.8 4.7 8.2 4.2 7.1-1.2 8.8-5.5 4.9-12.6l-1.4-2.6-.1 2.6zM55.2 103.9c-.7.4-4.6.6-8.7.5-7.4-.3-13 .7-14.9 2.6-1.6 1.6.2 2.4 5.4 2.1 5.5-.2 12.2 2.6 14 5.8 1.2 2.4 1.3 7.1.1 9-.6 1-.4 2.5.5 4.3 1.7 3.3 7.3 9.8 8.4 9.8 1.6 0 1.9-3.2.6-5.8-2.2-4.3-2.5-9.8-.9-15.3.8-2.7 1.2-6 .9-7.2-1-3.5-3.9-6.8-5.4-5.8zM131.3 109.9c-2.1 3.6-2.1 4.1-.7 8.6 1.8 6.2 1.8 11.2-.1 14.9-3.6 6.8-1.1 9.1 3.9 3.5 4.7-5.1 5.7-7.9 4.6-12-2-6.9 3.8-12.3 13.1-12.5 3.3 0 6.5-.6 7-1.1 2.1-2.1-3.3-3.7-12.6-4-4.9-.1-9.9-.5-11-.7-1.5-.4-2.5.4-4.2 3.3z"/><path d="M38.6 115.2c-3.3 4.6-.4 10.8 4.9 10.8 5.5 0 8.7-7.7 4.7-11.3-2.7-2.5-7.8-2.2-9.6.5zM63 115c-.9 1.6-.8 1.8.5 1.4.8-.4 1.5-1.2 1.5-2 0-2-.7-1.7-2 .6zM124.4 118.1c-1.6 1.7-4.8 4.2-7.1 5.5-7.4 4.4-19.7 2.5-26.5-4-3.5-3.3-3.7-1.5-.7 4.9 2.3 4.9 7.7 10.2 11.8 11.6 1.9.7 3.1 2.3 4.3 5.7 2.1 5.8 6.8 13.2 8.5 13.2 2.4 0 2.3-2-.2-6.9-2.9-5.8-3.1-9-1-13.1 1.8-3.4 4.3-5 7.9-5 4.6 0 9.4-9.7 6.8-13.8-.6-.9-1.6-.4-3.8 1.9zM144.9 116.2c-3.3 1.1-5.2 5-3.9 8.2 1.9 5.2 8.5 5.8 11.5 1.2 3.4-5.1-1.8-11.4-7.6-9.4zM65 118c0 1.8 7 9.3 7.8 8.5.3-.3-.4-1.3-1.7-2.1-1.2-.9-3.1-3-4.2-4.8-1-1.7-1.9-2.4-1.9-1.6zM62 122c0 .9.7 2.5 1.5 3.7 1.1 1.6 1.2 2.2.2 2.6-.6.2-.9.7-.6 1.1.3.4 1 .1 1.6-.6.6-.9.3-2.5-.9-4.8-1-1.9-1.8-2.8-1.8-2zM85.5 131c-1.7 1.9-1.9 1.9-3.9.3-2.1-1.8-2.1-1.8-.3.3.9 1.1 1.7 2.6 1.7 3.3 0 .7.5.9 1.1.6.6-.4.8-1 .5-1.3-.7-.6 2.3-4.2 3.6-4.2.4 0 .8 1 .8 2.2.1 2.2.1 2.2 1.1.4.9-1.4.8-2-.2-2.7-2-1.2-2.4-1.1-4.4 1.1z"/><path d="M117 134c-2.7 2.7-2.6 7.5.2 9.4 3.1 2.2 6.4 2 8.7-.6 3-3.1 1.6-9.2-2.2-10.2-3.5-.9-4.6-.7-6.7 1.4zM65.5 135c.3.5 1.1 1 1.6 1 .6 0 .7-.5.4-1-.3-.6-1.1-1-1.6-1-.6 0-.7.4-.4 1zM88.1 136.2c.1.7.5 2.4.9 3.8.7 2.2.8 2 .7-1.3 0-2-.4-3.7-.9-3.7-.4 0-.8.6-.7 1.2zM65.5 137.8c1.2 1.2 8.7 3.4 8 2.2-.2-.4-1.5-1-2.7-1.3-1.3-.2-3.2-.8-4.3-1.2-1.4-.6-1.7-.5-1 .3zM88.3 143.6c.9.9-2.9 6.1-5.8 8-4.4 2.9-8.1 3.4-11.9 1.5-2.4-1.3-3.3-1.4-2.9-.5 1.1 3 8.4 3.5 13.4.8 3.7-1.9 4.7-2.8 7.2-6.4 2-2.9 2.1-4 .5-4-.6 0-.8.3-.5.6zM50.8 149.2c-1 1.2-1.8 2.6-1.8 3.1 0 1.2 5.6 6.7 6.9 6.7 1.2 0 5.1-4 5.1-5.2 0-1.3-.8-.9-3 1.4-1.6 1.7-2.4 2-3.7 1.2-3.2-2-3.9-4.1-2-6.2.9-1 1.7-2.2 1.7-2.5 0-1.4-1.5-.6-3.2 1.5zM132 151.6c0 .5 1.1 2.2 2.4 3.9l2.4 3 3.1-2.9c1.7-1.7 3.1-3.4 3.1-4 0-.6-1.2.2-2.7 1.7l-2.7 2.7-2.8-2.7c-1.5-1.5-2.8-2.3-2.8-1.7zM125.8 156.6c-4.2 2.7-4.3 3.1-2.6 6.9 1.3 2.9 3.2 3.4 2.3.6-.8-2.5 6.2-7 7.1-4.6.4.8 1 1.2 1.5.9 1-.6-1.6-5-3.4-5.7-.7-.2-2.9.6-4.9 1.9zm4.7.4c-.9 1.5-6.5 4.2-6.5 3.1s4.1-4 5.8-4c.7-.1 1 .4.7.9zM61 158c-2.2 3.1-2.9 6.7-.7 3.8 1.2-1.5 1.5-1.5 4.6.4 2 1.3 3 2.6 2.7 3.5-.4.9-.1 1.3.6 1.1 1.3-.5 3-5.7 2.3-6.9-.3-.4-2.1-1.6-4-2.7l-3.4-2.1L61 158zm8 3.2c0 1.2-2.3.9-4.2-.6-3.1-2.3-2.1-3.9 1.2-1.9 1.7.9 3 2.1 3 2.5zM113.3 162.5c-3.5 1.5-4.2 3.9-2 6.8 1.1 1.6 1.6 1.6 5.2.4 6-2.1 7.9-6.8 2-5.3-1.4.4-2.5 1.1-2.5 1.7 0 .6.7.6 2-.1 1.4-.8 2-.8 2 0 0 1.3-4.9 3.2-6.7 2.6-.7-.3-1.3-1.4-1.3-2.5 0-1.8 2.7-3.4 6.2-3.6.3 0 1-.3 1.4-.8 1.2-1.2-2.9-.7-6.3.8zM73.2 163.2c-1.5 2-2.4 5.8-1.4 5.8.6 0 1.2-.6 1.5-1.4.9-2.3 7.7.1 7.7 2.8 0 2.5 1.7.9 2-1.9.4-3.8 0-4.4-3.7-5.4-4.8-1.4-4.8-1.4-6.1.1zm8.8 3c0 1.1-1.3 1-4.9-.5-1.7-.7-2.9-1.6-2.6-1.9.8-.8 7.5 1.3 7.5 2.4zM85 164.5c0 .2.7 2.3 1.6 4.5 2 4.9 4.2 5.1 7.1.6 3-4.6 1.6-5.5-1.5-1l-2.4 3.6-1.9-4.1c-1.6-3.5-2.9-5.2-2.9-3.6zM106.7 167.5c.3 1.9.1 3.6-.4 3.6-4.2.7-5.5.4-6.4-1.3-.5-1-.7-2.3-.4-2.8.3-.5.1-1.1-.5-1.5-.6-.4-1 .8-1 2.9 0 3 .4 3.7 2.5 4.2 3.2.8 7.1-.2 7.8-1.9.6-1.7-.3-6.7-1.3-6.7-.4 0-.6 1.6-.3 3.5z"/></svg>