<?xml version="1.0" standalone="no"?>
<!DOCTYPE svg PUBLIC "-//W3C//DTD SVG 20010904//EN"
 "http://www.w3.org/TR/2001/REC-SVG-20010904/DTD/svg10.dtd">
<svg version="1.0" xmlns="http://www.w3.org/2000/svg"
 width="256.000000pt" height="256.000000pt" viewBox="0 0 256.000000 256.000000"
 preserveAspectRatio="xMidYMid meet">
<metadata>
Created by potrace 1.11, written by Peter Selinger 2001-2013
</metadata>
<g transform="translate(0.000000,256.000000) scale(0.100000,-0.100000)"
fill="#000000" stroke="none">
<path d="M1790 2337 c-22 -17 -14 -44 15 -49 28 -6 42 27 20 48 -16 17 -16 17
-35 1z"/>
<path d="M1065 2315 c-66 -12 -132 -27 -146 -33 -78 -32 -219 -107 -249 -132
-19 -17 -39 -30 -43 -30 -4 0 -31 -22 -59 -50 -28 -27 -54 -50 -57 -50 -4 0
-15 -15 -26 -32 -10 -18 -28 -40 -38 -48 -10 -9 -31 -36 -45 -62 -15 -25 -41
-70 -59 -99 -39 -67 -87 -210 -109 -326 -23 -123 -15 -286 22 -408 16 -54 30
-132 34 -193 6 -78 12 -109 26 -125 43 -51 91 -87 122 -93 40 -8 55 -35 70
-121 6 -34 24 -93 40 -130 16 -37 35 -84 41 -105 14 -44 32 -53 63 -29 13 9
37 23 54 30 18 7 44 26 60 42 15 16 33 29 39 29 6 0 49 -16 95 -36 60 -25 118
-40 195 -51 98 -14 113 -19 136 -44 14 -16 40 -45 58 -64 l32 -36 60 33 c61
33 108 71 125 99 8 13 75 43 233 104 14 5 31 13 36 17 6 4 42 29 81 55 76 51
167 133 224 203 19 23 41 48 48 56 6 7 12 16 12 19 0 4 8 19 18 33 34 49 77
136 94 192 46 145 77 290 63 290 -2 0 -12 -26 -21 -57 -9 -32 -22 -67 -29 -78
-7 -11 -16 -31 -20 -44 -7 -23 -44 -82 -102 -165 -30 -42 -53 -57 -53 -33 0
22 -47 121 -67 140 -28 26 -76 63 -99 75 -11 6 -28 33 -38 64 -15 43 -27 58
-64 82 -46 30 -105 55 -133 56 -9 0 -32 18 -53 40 -53 57 -77 70 -137 75 -69
5 -121 -9 -162 -44 -28 -24 -43 -29 -114 -34 -80 -6 -81 -6 -87 19 -4 13 -2
33 4 43 14 28 5 82 -16 98 -11 8 -32 13 -49 11 -22 -2 -32 2 -41 20 -6 13 -20
33 -31 46 -11 12 -18 26 -16 31 5 17 -99 60 -147 61 -25 0 -61 6 -80 12 -44
15 -83 8 -137 -24 -31 -18 -43 -21 -43 -11 0 22 30 109 56 160 13 27 24 54 24
61 0 15 78 129 91 134 5 2 9 9 9 15 0 13 132 147 144 147 5 0 24 14 44 31 38
34 170 98 255 125 65 20 122 28 214 28 40 1 73 4 73 7 0 10 -133 26 -220 26
-47 0 -139 -10 -205 -22z m-415 -325 c0 -10 5 -20 12 -22 8 -3 5 -12 -10 -28
-17 -19 -24 -21 -36 -11 -8 7 -19 10 -24 7 -4 -2 -9 10 -9 29 -1 27 2 33 17
30 10 -2 21 3 24 11 8 20 26 8 26 -16z m-203 -279 c0 -24 -4 -28 -24 -27 -23
1 -40 27 -28 46 3 5 16 10 29 10 18 0 23 -6 23 -29z m25 -251 c22 0 23 -13 4
-33 -8 -8 -16 -26 -18 -40 -3 -26 -4 -26 -31 -12 -22 11 -34 12 -49 4 -27 -14
-30 -8 -15 30 11 30 10 34 -13 53 l-25 21 33 -5 c27 -4 36 0 55 24 l22 28 9
-35 c7 -24 15 -35 28 -35z m636 -17 c20 -17 26 -33 23 -60 -2 -21 -32 -15 -38
7 -3 11 -9 17 -14 14 -5 -3 -5 -13 1 -24 8 -15 7 -18 -4 -14 -18 7 -29 76 -13
86 17 11 22 10 45 -9z m142 -169 c0 -5 -51 -30 -78 -39 -21 -6 -23 -4 -20 17
2 18 11 24 38 28 33 6 60 3 60 -6z m481 -46 c77 -26 127 -70 144 -126 6 -22 5
-23 -31 -16 -26 5 -35 4 -30 -5 4 -6 14 -11 23 -11 30 0 128 -62 170 -107 51
-55 72 -123 64 -208 -2 -18 -3 -18 -15 5 -8 13 -38 43 -67 65 -61 46 -91 92
-99 149 -6 46 -40 72 -104 79 -29 3 -47 14 -72 41 -30 33 -34 44 -34 92 0 59
1 60 51 42z m-1386 -58 c3 -5 14 -10 25 -10 14 0 18 -8 18 -34 0 -28 -3 -34
-19 -31 -10 2 -21 0 -24 -6 -8 -13 -25 -11 -25 2 0 7 -8 18 -17 25 -17 12 -17
13 0 19 9 4 17 16 17 26 0 20 15 26 25 9z m372 -730 c34 0 53 -11 53 -30 0
-20 -20 -39 -78 -71 -43 -23 -44 -23 -55 -4 -12 21 -57 135 -57 146 0 4 26 -4
58 -17 31 -13 67 -24 79 -24z"/>
<path d="M1378 2188 c-2 -13 -13 -27 -25 -33 -30 -13 -29 -19 3 -34 16 -7 24
-17 20 -26 -3 -8 -2 -16 2 -19 10 -6 32 21 24 29 -4 4 8 5 26 2 30 -6 32 -5
22 14 -8 15 -8 24 0 34 15 18 4 36 -16 28 -8 -3 -23 2 -34 12 -17 16 -19 16
-22 -7z"/>
<path d="M900 1961 c-6 -12 -18 -21 -27 -21 -12 0 -13 -3 -3 -15 7 -8 10 -21
7 -30 -7 -17 9 -30 18 -14 4 6 18 8 32 4 21 -5 24 -3 19 11 -3 9 -3 22 2 28 5
7 -1 20 -14 34 l-22 24 -12 -21z"/>
<path d="M1620 1849 c0 -6 -9 -9 -20 -6 -17 4 -20 2 -15 -13 3 -10 1 -21 -5
-25 -16 -10 -12 -35 5 -28 9 3 22 -2 30 -13 8 -11 15 -16 16 -11 1 4 3 12 4
17 1 6 3 15 4 20 0 6 11 10 24 10 l22 1 -22 18 c-13 11 -23 24 -23 30 0 6 -4
11 -10 11 -5 0 -10 -5 -10 -11z"/>
<path d="M1170 1820 c0 -23 -7 -33 -32 -46 l-33 -17 33 -15 c27 -13 32 -21 32
-49 0 -39 9 -41 39 -9 19 20 28 23 48 15 48 -18 56 -7 23 31 -20 23 -20 24 -1
56 23 39 19 45 -19 31 -25 -10 -33 -8 -53 11 -31 29 -37 28 -37 -8z"/>
<path d="M1944 1516 c5 -20 3 -32 -6 -37 -9 -6 -7 -10 7 -15 11 -4 23 -12 28
-18 5 -7 11 -5 18 7 5 9 20 17 32 17 l21 0 -21 15 c-13 9 -20 23 -18 35 4 22
-5 26 -23 8 -8 -8 -15 -8 -28 3 -16 13 -17 11 -10 -15z"/>
</g>
</svg>
