<?xml version="1.0" standalone="no"?>
<!DOCTYPE svg PUBLIC "-//W3C//DTD SVG 20010904//EN"
 "http://www.w3.org/TR/2001/REC-SVG-20010904/DTD/svg10.dtd">
<svg version="1.0" xmlns="http://www.w3.org/2000/svg"
 width="165.000000pt" height="165.000000pt" viewBox="0 0 165.000000 165.000000"
 preserveAspectRatio="xMidYMid meet">
<metadata>
Created by potrace 1.11, written by Peter Selinger 2001-2013
</metadata>
<g transform="translate(0.000000,165.000000) scale(0.100000,-0.100000)"
fill="#000000" stroke="none">
<path d="M780 1608 c-6 -7 -18 -22 -26 -33 -9 -11 -12 -14 -8 -6 5 10 3 13 -8
8 -9 -3 -24 1 -35 8 -24 19 -26 19 -57 -10 -22 -20 -31 -23 -52 -15 -32 13
-27 14 -59 -16 -17 -16 -33 -23 -44 -18 -43 17 -51 16 -63 -12 -20 -44 -28
-50 -69 -46 -39 4 -39 4 -39 -33 l0 -38 -45 6 -45 7 0 -45 c0 -43 -1 -45 -24
-41 -38 7 -55 -25 -33 -61 9 -14 -5 -24 -47 -33 -17 -4 -30 -11 -29 -16 1 -5
4 -26 8 -46 7 -36 6 -38 -19 -38 -36 0 -42 -23 -17 -64 l21 -34 -35 -6 c-41
-8 -43 -16 -14 -62 l21 -34 -31 -17 c-34 -20 -41 -52 -15 -73 32 -27 34 -45 8
-73 -30 -33 -26 -56 16 -81 l31 -18 -21 -32 c-26 -43 -26 -45 10 -57 34 -12
36 -22 15 -62 -14 -26 -13 -28 19 -41 27 -11 33 -19 30 -37 -2 -13 -5 -33 -6
-43 -2 -15 4 -20 32 -23 45 -6 55 -16 40 -43 -18 -33 -6 -51 29 -44 29 6 30 5
33 -37 l3 -44 45 0 c43 0 45 -1 48 -32 4 -36 19 -41 66 -23 14 5 25 6 24 2 -1
-4 3 -22 9 -39 13 -37 41 -44 67 -17 24 23 49 13 58 -24 10 -36 13 -37 48 -17
35 20 45 18 58 -10 15 -32 34 -32 68 2 l26 26 16 -26 c20 -33 61 -36 80 -7 16
26 30 25 59 -1 18 -18 25 -20 38 -9 8 7 15 18 15 25 0 20 25 25 59 12 34 -12
38 -11 43 18 6 36 20 43 55 29 48 -20 58 -18 72 21 13 38 17 40 54 26 33 -13
48 0 50 40 2 33 2 34 45 30 l44 -3 -4 39 c-3 37 -2 38 35 41 31 3 37 7 37 27
0 13 -5 27 -11 31 -14 8 27 33 55 34 14 0 17 6 14 27 -3 16 -8 35 -12 44 -6
13 1 20 28 29 20 6 36 14 36 16 0 3 -7 21 -15 41 -8 20 -14 37 -13 38 2 0 15
6 31 13 30 13 34 24 13 44 -29 29 -28 53 4 71 37 22 38 48 5 81 -14 14 -25 27
-25 29 0 3 13 19 29 36 35 37 31 59 -10 68 -37 7 -45 31 -19 58 21 22 27 55
11 55 -5 0 -22 5 -36 10 l-26 10 20 29 c29 40 27 48 -15 55 -34 7 -35 9 -28
39 13 60 12 62 -35 65 -35 3 -42 6 -38 20 20 64 22 60 -20 64 -38 3 -38 3 -38
46 l0 43 -47 -6 -48 -6 0 36 c0 34 -1 36 -29 32 -17 -3 -34 -8 -40 -11 -8 -5
-23 8 -27 24 -7 38 -45 58 -65 34 -9 -12 -15 -12 -27 -2 -9 7 -13 8 -9 2 3 -6
0 -11 -8 -11 -8 0 -12 4 -10 7 3 4 -3 16 -13 27 -17 19 -48 20 -66 2 -5 -5
-19 3 -33 18 -22 23 -27 24 -48 13 -14 -7 -22 -16 -20 -20 12 -20 -30 -3 -53
22 -30 31 -37 33 -52 16z"/>
</g>
</svg>
